<svg xmlns="http://www.w3.org/2000/svg" viewBox="0 0 512 512" role="img" aria-labelledby="title desc">
  <title id="title">Danta: Cruce del Bosque</title>
  <desc id="desc">Icono del juego con una danta en un bosque.</desc>
  <rect width="512" height="512" rx="112" fill="#101915"/>
  <path d="M0 330c57-55 99-69 148-47 31 14 55 44 89 40 51-6 66-77 127-89 49-10 93 26 148 91v187H0z" fill="#284b34"/>
  <path d="M0 392c68-38 124-44 175-20 47 22 84 64 151 53 66-11 113-62 186-49v136H0z" fill="#3f6b4c"/>
  <path d="M118 160c8-54 44-84 96-90 65-8 124 22 151 74 32 5 59 25 73 55 18 40 5 85-31 111-26 19-68 23-106 5-32 33-85 48-130 35-56-16-88-66-78-122 4-23 13-45 25-68z" fill="#453d37"/>
  <path d="M207 88c59-6 113 24 135 78 8 21 10 44 5 65-31-45-75-72-128-68-45 3-80 27-108 69-8-67 27-136 96-144z" fill="#5c5148"/>
  <path d="M324 153c47 1 87 34 92 79 4 37-23 69-62 75-28 4-62-7-82-30 33-21 51-66 52-124z" fill="#75685c"/>
  <path d="M371 194c16-1 30 10 32 25 2 17-10 30-28 31-18 1-32-11-33-27-1-15 12-28 29-29z" fill="#9d8f7c"/>
  <path d="M386 230c11 0 20 7 21 17 1 11-8 21-21 22-13 1-24-7-25-19-1-11 10-20 25-20z" fill="#181918"/>
  <path d="M329 139l41-58 18 74z" fill="#302b28"/>
  <path d="M174 127l-55-44 12 76z" fill="#302b28"/>
  <circle cx="346" cy="206" r="9" fill="#101311"/>
  <circle cx="350" cy="202" r="3" fill="#f4f0dc"/>
  <path d="M86 350h354" stroke="#e6a53f" stroke-width="18" stroke-linecap="round" stroke-dasharray="42 34"/>
</svg>
